<svg width="52" height="55" xmlns="http://www.w3.org/2000/svg" xmlns:xlink="http://www.w3.org/1999/xlink" overflow="hidden"><defs><clipPath id="clip0"><rect x="998" y="62" width="52" height="55"/></clipPath></defs><g clip-path="url(#clip0)" transform="translate(-998 -62)"><path d="M1049.62 85.9291C1025.33 63.7518 1025.33 63.7518 1025.33 63.7518 1024.95 63.3759 1024.57 63 1024.19 63 1023.43 63 1023.05 63.3759 1022.67 63.7518 998.759 85.9291 998.759 85.9291 998.759 85.9291 998.38 86.305 998 87.0567 998.38 87.4326 998.38 88.1844 999.139 88.5603 999.898 88.5603 1001.04 88.5603 1001.04 88.5603 1001.04 88.5603 1001.04 114.121 1001.04 114.121 1001.04 114.121 1001.04 115.248 1002.18 116 1002.93 116 1016.6 116 1016.6 116 1016.6 116 1017.74 116 1018.5 115.248 1018.5 114.121 1018.5 96.8298 1018.5 96.8298 1018.5 96.8298 1029.88 96.8298 1029.88 96.8298 1029.88 96.8298 1029.88 114.121 1029.88 114.121 1029.88 114.121 1029.88 115.248 1030.64 116 1031.4 116 1045.07 116 1045.07 116 1045.07 116 1046.2 116 1046.96 115.248 1046.96 114.121 1046.96 88.5603 1046.96 88.5603 1046.96 88.5603 1048.48 88.5603 1048.48 88.5603 1048.48 88.5603 1048.86 88.5603 1049.62 88.1844 1050 87.4326 1050 87.0567 1050 86.305 1049.62 85.9291ZM1045.82 86.305C1045.45 86.305 1044.69 87.0567 1044.69 87.4326 1044.69 114.121 1044.69 114.121 1044.69 114.121 1031.78 114.121 1031.78 114.121 1031.78 114.121 1031.78 96.8298 1031.78 96.8298 1031.78 96.8298 1031.78 95.7021 1031.02 94.9504 1029.88 94.9504 1018.12 94.9504 1018.12 94.9504 1018.12 94.9504 1017.36 94.9504 1016.22 95.7021 1016.22 96.8298 1016.22 114.121 1016.22 114.121 1016.22 114.121 1003.31 114.121 1003.31 114.121 1003.31 114.121 1003.31 87.4326 1003.31 87.4326 1003.31 87.4326 1003.31 87.0567 1002.93 86.305 1002.18 86.305 1001.04 86.305 1001.04 86.305 1001.04 86.305 1024.19 65.2553 1024.19 65.2553 1024.19 65.2553 1046.96 86.305 1046.96 86.305 1046.96 86.305L1045.82 86.305Z" fill="#404041" fill-rule="evenodd"/></g></svg>